<svg height="512pt" viewBox="-10 0 512 512.00102" width="512pt" xmlns="http://www.w3.org/2000/svg"><path d="m173.828125 34.796875h-71.835937c-5.652344 0-10.234376 4.582031-10.234376 10.234375s4.582032 10.234375 10.234376 10.234375h71.835937c5.652344 0 10.234375-4.582031 10.234375-10.234375s-4.582031-10.234375-10.234375-10.234375zm0 0"/><path d="m454.769531 292.871094-81.539062-81.539063c-16.527344-16.527343-42.589844-17.359375-58.09375-1.855469-5.273438 5.269532-8.78125 11.832032-10.292969 19.058594-6.070312-3.558594-12.871094-5.601562-19.890625-5.898437-3.125-.132813-6.183594.09375-9.136719.636719v-47.085938h88.480469c5.652344 0 10.234375-4.578125 10.234375-10.230469 0-5.652343-4.582031-10.234375-10.234375-10.234375h-88.480469v-110.402344c0-24.992187-20.328125-45.320312-45.320312-45.320312h-185.175782c-24.988281 0-45.320312 20.328125-45.320312 45.320312v72.125c0 5.652344 4.582031 10.234376 10.234375 10.234376 5.648437 0 10.230469-4.582032 10.230469-10.234376v-27.128906h234.886718v143.929688c-4.917968 5.109375-8.308593 11.644531-9.757812 18.578125-15.9375-9.328125-36.125-7.730469-49.015625 5.160156-4.953125 4.949219-8.234375 10.976563-9.875 17.421875l-34.839844-34.839844c-15.496093-15.496094-39.367187-17.195312-55.070312-4.570312-1.046875.839844-2.054688 1.746094-3.023438 2.714844-15.503906 15.507812-14.671875 41.566406 1.855469 58.09375l48.132812 48.132812h-123.292968v-145.421875c0-5.652344-4.582032-10.234375-10.230469-10.234375-5.652344 0-10.234375 4.582031-10.234375 10.234375v231.789063c0 24.992187 20.332031 45.320312 45.320312 45.320312h117.917969c2.617188 19.894531 19.667969 35.304688 40.261719 35.304688 0 0 159.023438.070312 160.429688.070312 33.917968 0 66.808593-13.558594 90.839843-37.589844 50.050781-50.050781 50.050781-131.488281 0-181.539062zm-434.304687-223.023438v-24.527344c0-13.703124 11.152344-24.855468 24.855468-24.855468h185.179688c13.703125 0 24.851562 11.152344 24.851562 24.855468v24.527344zm.003906 361.457032v-65.898438h143.753906l58.421875 58.421875c-5.828125 0-11.660156 0-17.488281 0-4.5 0-8.90625.421875-13.246094 1.695313-6.59375 1.9375-12.667968 5.652343-17.457031 10.574218-5.375 5.519532-9.148437 12.515625-10.722656 20.0625h-118.410157c-13.703124 0-24.851562-11.152344-24.851562-24.855468zm419.828125 28.632812c-21.070313 21.074219-50.234375 32.570312-80.0625 31.53125-.117187-.003906-156.730469-.003906-156.730469-.003906-10.425781 0-19.375-8.328125-20.105468-18.730469-.191407-2.710937-.066407-5.472656-.050782-8.1875.023438-4.957031 1.785156-9.75 5.085938-13.464844 3.800781-4.28125 9.34375-6.785156 15.070312-6.785156h39.609375l15.46875 15.46875c2 2 4.617188 3 7.238281 3 2.617188 0 5.234376-1 7.234376-3 3.996093-3.996094 3.996093-10.476563 0-14.472656l-162.957032-162.957031c-5.464844-5.464844-8.382812-13.667969-6.355468-21.28125.996093-3.746094 3.21875-7.195313 6.378906-9.46875 3.910156-2.816407 8.617187-3.898438 13.386718-3.382813 5.234376.570313 10.179688 3.132813 13.882813 6.835937l112.53125 112.53125c2 1.996094 4.617187 2.996094 7.234375 2.996094 2.621094 0 5.238281-1 7.238281-2.996094 3.996094-3.996093 3.996094-10.476562 0-14.472656l-51.488281-51.488281c-8.550781-8.546875-9.382812-21.625-1.855469-29.152344 7.523438-7.523437 20.601563-6.691406 29.148438 1.855469l50.90625 50.90625c2 2 4.617187 2.996094 7.234375 2.996094 2.621094 0 5.238281-.996094 7.238281-2.996094 3.996094-3.996094 3.996094-10.476562 0-14.472656l-33.394531-33.394532c-1.601563-1.601562-2.933594-3.363281-3.992188-5.21875-2.109375-3.707031-3.121094-7.789062-2.996094-11.710937.148438-4.574219 1.839844-8.925781 5.132813-12.21875.382813-.382813.789063-.738281 1.203125-1.082031.097656-.078125.191406-.160156.289062-.238282 3.359376-2.652343 7.652344-3.992187 12.261719-3.800781 5.671875.242188 11.140625 2.71875 15.398438 6.976563l33.390625 33.390625c2 2 4.617187 3 7.238281 3 2.617187 0 5.234375-1 7.234375-3 3.996094-3.992188 3.996094-10.472657 0-14.46875l-15.917969-15.917969c-4.234375-4.25-6.695312-9.703125-6.9375-15.359375-.226562-5.339844 1.589844-10.226563 5.117188-13.753906 7.527343-7.527344 20.601562-6.695313 29.152343 1.855469l81.539063 81.539062c42.070313 42.070312 42.070313 110.523438 0 152.59375zm0 0"/><path d="m.785156 162.398438c1.636719 3.960937 5.671875 6.503906 9.949219 6.300781 4.269531-.199219 8.050781-3.164063 9.289063-7.25 1.1875-3.90625-.136719-8.292969-3.300782-10.878907-3.457031-2.820312-8.453125-3.054687-12.171875-.59375-4.027343 2.667969-5.601562 7.976563-3.765625 12.421876zm0 0"/><path d="m137.910156 381.617188c-16.035156 0-29.082031 13.046874-29.082031 29.082031 0 16.03125 13.046875 29.078125 29.082031 29.078125s29.078125-13.042969 29.078125-29.078125c0-16.035157-13.042969-29.082031-29.078125-29.082031zm0 37.695312c-4.75 0-8.613281-3.863281-8.613281-8.613281s3.863281-8.617188 8.613281-8.617188 8.613282 3.867188 8.613282 8.617188-3.863282 8.613281-8.613282 8.613281zm0 0"/><path d="m81.070312 214.101562c-3.996093-3.996093-10.472656-3.996093-14.472656 0-14.113281 14.113282-21.886718 32.878907-21.886718 52.835938 0 19.960938 7.773437 38.722656 21.886718 52.835938 2 2 4.617188 3 7.234375 3 2.621094 0 5.238281-1 7.238281-3 3.996094-3.996094 3.996094-10.476563 0-14.472657-10.246093-10.246093-15.890624-23.871093-15.890624-38.363281s5.644531-28.117188 15.890624-38.363281c3.996094-3.996094 3.996094-10.476563 0-14.472657zm0 0"/><path d="m306.605469 133.574219h84.089843c5.652344 0 10.234376-4.582031 10.234376-10.234375s-4.582032-10.234375-10.234376-10.234375h-84.089843c-5.648438 0-10.234375 4.582031-10.234375 10.234375s4.582031 10.234375 10.234375 10.234375zm0 0"/><path d="m422.253906 127.257812c1.648438 3.988282 5.785156 6.574219 10.101563 6.292969 4.210937-.269531 7.910156-3.207031 9.136719-7.242187 1.246093-4.105469-.277344-8.695313-3.75-11.21875-3.355469-2.4375-7.914063-2.597656-11.4375-.433594-4.226563 2.597656-5.9375 8.042969-4.050782 12.601562zm0 0"/></svg>